<?xml version="1.0" encoding="utf-8"?>
<!-- Generator: Adobe Illustrator 25.2.1, SVG Export Plug-In . SVG Version: 6.00 Build 0)  -->
<svg version="1.1" id="Layer_1" xmlns="http://www.w3.org/2000/svg" xmlns:xlink="http://www.w3.org/1999/xlink" x="0px" y="0px"
	 viewBox="0 0 276 72" style="enable-background:new 0 0 276 72;" xml:space="preserve">
<style type="text/css">
	.st0{fill:#FFFFFF;}
</style>
<g>
	<g>
		<path class="st0" d="M64.3,29.2c-3.8,0-6.8,3-6.8,6.8s3,6.8,6.8,6.8c3.8,0,6.8-3,6.8-6.8C71.1,32.2,68,29.2,64.3,29.2"/>
		<path class="st0" d="M48.9,30c-3.4,0-6.1,2.7-6.1,6.1c0,3.3,2.7,6.1,6.1,6.1c3.3,0,6.1-2.7,6.1-6.1S52.3,30,48.9,30"/>
		<path class="st0" d="M48.9,14.7c-3.4,0-6.1,2.7-6.1,6.1s2.7,6.1,6.1,6.1c3.3,0,6.1-2.7,6.1-6.1S52.3,14.7,48.9,14.7"/>
		<path class="st0" d="M48.9,45.3c-3.4,0-6.1,2.7-6.1,6.1c0,3.3,2.7,6.1,6.1,6.1c3.3,0,6.1-2.7,6.1-6.1S52.3,45.3,48.9,45.3"/>
		<path class="st0" d="M33.7,30.7c-2.9,0-5.3,2.3-5.3,5.3s2.3,5.3,5.3,5.3S39,38.9,39,36S36.6,30.7,33.7,30.7"/>
		<path class="st0" d="M33.7,15.4c-2.9,0-5.3,2.3-5.3,5.3s2.3,5.3,5.3,5.3s5.3-2.3,5.3-5.3S36.6,15.4,33.7,15.4"/>
		<path class="st0" d="M33.7,46.1c-2.9,0-5.3,2.3-5.3,5.3s2.3,5.3,5.3,5.3s5.3-2.3,5.3-5.3S36.6,46.1,33.7,46.1"/>
		<path class="st0" d="M33.7,61.4c-2.9,0-5.3,2.3-5.3,5.3c0,2.9,2.3,5.3,5.3,5.3s5.3-2.3,5.3-5.3C39,63.8,36.6,61.4,33.7,61.4"/>
		<path class="st0" d="M33.7,0c-2.9,0-5.3,2.3-5.3,5.3s2.3,5.3,5.3,5.3S39,8.2,39,5.3S36.6,0,33.7,0"/>
		<path class="st0" d="M18.3,31.5c-2.5,0-4.6,2-4.6,4.6c0,2.5,2,4.6,4.6,4.6c2.5,0,4.6-2,4.6-4.6S20.9,31.5,18.3,31.5"/>
		<path class="st0" d="M18.3,46.8c-2.5,0-4.6,2-4.6,4.6c0,2.5,2,4.6,4.6,4.6c2.5,0,4.6-2,4.6-4.6S20.9,46.8,18.3,46.8"/>
		<path class="st0" d="M18.3,16.2c-2.5,0-4.6,2-4.6,4.6c0,2.5,2,4.6,4.6,4.6c2.5,0,4.6-2,4.6-4.6C22.9,18.3,20.9,16.2,18.3,16.2"/>
		<path class="st0" d="M4.5,32.2c-2.1,0-3.8,1.6-3.8,3.8c0,2.1,1.6,3.8,3.8,3.8s3.8-1.6,3.8-3.8S6.5,32.2,4.5,32.2"/>
		<path class="st0" d="M129.3,10.2c-2.5,0-4.6,2-4.6,4.6c0,2.5,2,4.6,4.6,4.6c2.6,0,4.6-2,4.6-4.6S131.8,10.2,129.3,10.2"/>
		<path class="st0" d="M225.6,10.2c-2.5,0-4.6,2-4.6,4.6c0,2.5,2,4.6,4.6,4.6c2.5,0,4.6-2,4.6-4.6S228.1,10.2,225.6,10.2"/>
	</g>
	<rect x="125.7" y="26.2" class="st0" width="7.3" height="40.6"/>
	<rect x="221.9" y="26.2" class="st0" width="7.3" height="40.6"/>
	<g>
		<path class="st0" d="M261.4,33.4v-7.3h-10.7V10.4h-7.3v15.7h-5.9v7.3h5.9v21.7c0,6.4,5.3,11.6,11.6,11.6h6.3v-7.1h-5.7
			c-2.9,0-4.9-2.1-4.9-5.2v-21C250.7,33.4,261.4,33.4,261.4,33.4z"/>
		<path class="st0" d="M165.9,33.4v-7.3h-10.7V10.4H148v15.7h-5.9v7.3h5.9v21.7c0,6.4,5.3,11.6,11.6,11.6h6.3v-7.1h-5.7
			c-2.9,0-4.9-2.1-4.9-5.2v-21C155.3,33.4,165.9,33.4,165.9,33.4z"/>
		<path class="st0" d="M97.8,17.8v8.3h-5.9v7.3h5.9v33.3h7.3V33.4h11.7v-7.3h-11.7v-8.3c0-3,2.1-5.4,4.9-5.4h6.7V5.2h-6.3
			C103.4,5.2,97.8,10.9,97.8,17.8"/>
		<path class="st0" d="M194.8,60c-7.3,0-13.1-6.1-13.1-13.6s5.9-13.6,13.1-13.6c7.3,0,13.1,6.1,13.1,13.6
			C208,53.9,202.1,60,194.8,60 M195.5,25.5c-6.6,0-11.1,3-13.9,6.4V5.3h-7.3v61.5h7.4v-5.7c2.7,3.4,7.3,6.4,13.9,6.4
			c11.5,0,19.8-9,19.8-21l0,0l0,0C215.5,34.5,207,25.5,195.5,25.5"/>
		<path class="st0" d="M270.7,63.2h0.9c0.5,0,0.8-0.2,0.8-0.6s-0.2-0.6-0.8-0.6h-0.9V63.2z M272.8,65.5l-1.2-1.9h-0.9v1.9h-0.5v-4
			h1.4c0.8,0,1.3,0.5,1.3,1.1c0,0.5-0.2,0.8-0.8,1.1l1.2,1.9L272.8,65.5L272.8,65.5z M274.7,63.7c0-1.8-1.3-3.2-3.2-3.2
			c-1.8,0-3,1.3-3,3.2c0,1.8,1.3,3.2,3,3.2C273.3,66.7,274.7,65.4,274.7,63.7 M268,63.7c0-2.1,1.5-3.6,3.6-3.6s3.6,1.5,3.6,3.6
			c0,2.1-1.5,3.6-3.6,3.6C269.5,67.2,268,65.7,268,63.7"/>
	</g>
</g>
</svg>
